HIERARCHY
ROOT Hips
{
    OFFSET 0.000000 0.000000 0.000000
    CHANNELS 6 Xposition Yposition Zposition Zrotation Xrotation Yrotation
    JOINT Spine
    {
        OFFSET -0.000000 6.925600 0.000000
        CHANNELS 3 Zrotation Xrotation Yrotation
        JOINT Spine1
        {
            OFFSET -0.000000 16.343796 0.000000
            CHANNELS 3 Zrotation Xrotation Yrotation
            JOINT Neck
            {
                OFFSET -0.000000 18.032967 0.000000
                CHANNELS 3 Zrotation Xrotation Yrotation
                JOINT Head
                {
                    OFFSET -0.000000 13.091072 1.689171
                    CHANNELS 3 Zrotation Xrotation Yrotation
                    End Site
                    {
                        OFFSET -0.000000 16.891708 0.000000
                    }
                }
            }
            JOINT LeftShoulder
            {
                OFFSET 3.336773 14.146137 -0.012206
                CHANNELS 3 Zrotation Xrotation Yrotation
                JOINT LeftArm
                {
                    OFFSET 11.765518 0.000000 0.000000
                    CHANNELS 3 Zrotation Xrotation Yrotation
                    JOINT LeftForeArm
                    {
                        OFFSET 25.163450 0.000000 0.000000
                        CHANNELS 3 Zrotation Xrotation Yrotation
                        JOINT LeftHand
                        {
                            OFFSET 21.783554 0.000000 0.000000
                            CHANNELS 3 Zrotation Xrotation Yrotation
                            End Site
                            {
                                OFFSET 12.668781 0.000000 0.000000
                            }
                        }
                    }
                }
            }
            JOINT RightShoulder
            {
                OFFSET -3.409204 14.146137 -0.012206
                CHANNELS 3 Zrotation Xrotation Yrotation
                JOINT RightArm
                {
                    OFFSET -11.765518 0.000000 0.000000
                    CHANNELS 3 Zrotation Xrotation Yrotation
                    JOINT RightForeArm
                    {
                        OFFSET -25.163450 0.000000 0.000000
                        CHANNELS 3 Zrotation Xrotation Yrotation
                        JOINT RightHand
                        {
                            OFFSET -21.783554 0.000000 0.000000
                            CHANNELS 3 Zrotation Xrotation Yrotation
                            End Site
                            {
                                OFFSET -12.668781 0.000000 0.000000
                            }
                        }
                    }
                }
            }
        }
    }
    JOINT LeftUpLeg
    {
        OFFSET 8.445854 0.000000 0.000000
        CHANNELS 3 Zrotation Xrotation Yrotation
        JOINT LeftLeg
        {
            OFFSET -0.000000 -40.674755 0.000000
            CHANNELS 3 Zrotation Xrotation Yrotation
            JOINT LeftFoot
            {
                OFFSET -0.000000 -37.111794 0.000000
                CHANNELS 3 Zrotation Xrotation Yrotation
                JOINT LeftToeBase
                {
                    OFFSET -0.000000 -5.489805 12.668781
                    CHANNELS 3 Zrotation Xrotation Yrotation
                    End Site
                    {
                        OFFSET -0.000000 0.000000 3.378341
                    }
                }
            }
        }
    }
    JOINT RightUpLeg
    {
        OFFSET -8.445854 0.000000 0.000000
        CHANNELS 3 Zrotation Xrotation Yrotation
        JOINT RightLeg
        {
            OFFSET -0.000000 -40.674755 0.000000
            CHANNELS 3 Zrotation Xrotation Yrotation
            JOINT RightFoot
            {
                OFFSET -0.000000 -37.111794 0.000000
                CHANNELS 3 Zrotation Xrotation Yrotation
                JOINT RightToeBase
                {
                    OFFSET -0.000000 -5.489805 12.668781
                    CHANNELS 3 Zrotation Xrotation Yrotation
                    End Site
                    {
                        OFFSET -0.000000 0.000000 3.378341
                    }
                }
            }
        }
    }
}
MOTION
Frames:    9
Frame Time:    0.008333
-21.673283    75.084496    12.982306    -6.827094    -4.243915    -86.880333    -2.065541    21.332245    0.708323    -4.616526    5.174809    0.300584    -1.395627    7.688136    -3.307095    1.871098    -15.441683    -3.686839    -1.436574    7.817385    11.581442    -61.613865    20.253254    -33.026768    -19.206223    -41.359028    -89.046158    46.807369    -44.688190    32.830158    -0.378813    7.102131    -5.281401    77.451050    -5.293201    37.846577    14.734766    -30.576666    53.809864    -43.247513    -32.017418    -14.647028    4.373641    -22.609097    -6.485936    -17.584671    50.911160    12.621664    0.325543    -19.402554    17.376717    -3.735305    -5.235903    -1.161048    -0.800737    -22.321207    -2.377809    -19.369991    58.145714    1.585135    11.923878    -27.906666    4.034582    -1.018352    1.766136    -0.033557    
-21.779022    75.323532    12.936645    -6.793686    -4.258209    -86.678719    -2.023168    21.151756    0.637456    -4.674103    5.084166    0.278918    -0.912773    7.664722    -3.606024    1.165752    -15.083105    -3.907175    -1.349489    7.874689    11.651018    -73.570381    3.141171    -35.139252    -22.832804    -27.097939    -81.655640    38.264420    -36.978149    24.147179    -0.297775    7.219321    -5.393038    76.285904    -4.176629    37.155056    14.888760    -30.557734    54.930561    -45.998631    -30.695082    -17.816885    4.226805    -22.254168    -6.653391    -17.004963    50.288078    12.194918    0.180223    -19.194450    17.317812    -3.682106    -5.181268    -1.191200    -0.774392    -21.879894    -2.556617    -19.196936    57.415394    1.344720    11.868868    -27.667995    3.923847    -1.013367    1.768955    -0.053429    
-21.870590    75.581047    12.891152    -6.790444    -4.217909    -86.637466    -2.002072    21.067276    0.697271    -4.634256    4.877991    0.291076    -0.959761    7.546165    -3.622258    1.020411    -14.631114    -3.937016    -1.355211    7.898988    11.641209    -73.354584    3.063114    -35.020359    -23.026882    -26.732512    -82.249153    38.915104    -36.668571    24.735659    -0.342423    7.329826    -5.483351    74.126083    -1.995828    36.173660    15.130160    -31.307377    56.498661    -48.175579    -30.337425    -20.578182    4.248372    -21.771395    -6.672046    -16.539352    49.486473    11.849416    0.087052    -18.871328    17.243681    -3.669971    -5.166430    -1.191659    -0.657685    -21.437864    -2.567953    -18.939116    56.666996    0.901998    11.837465    -27.399805    3.989547    -1.049205    1.824601    -0.042670    
-22.007120    75.841400    12.851958    -6.711333    -4.214180    -86.477318    -1.908323    20.652000    0.615457    -4.726231    5.003821    0.280761    -1.026043    7.724665    -3.636364    1.123462    -14.848531    -3.964327    -1.277868    7.832287    11.687356    -73.101967    3.030184    -34.968185    -23.027699    -26.419662    -82.789619    39.446487    -36.333336    25.098213    -0.349831    7.336347    -5.524645    73.960152    -1.812811    35.970184    15.225543    -31.252560    56.997299    -49.698555    -29.111219    -22.955305    4.134519    -21.345961    -6.873594    -16.021727    48.681210    11.517540    -0.051245    -18.599743    17.185078    -3.645031    -5.135072    -1.190289    -0.610735    -20.964224    -2.732495    -18.746433    55.808224    0.786900    11.707161    -27.160368    3.740123    -1.061547    1.843162    -0.037919    
-22.103897    76.121246    12.803623    -6.671205    -4.200329    -86.309235    -1.820058    20.457544    0.527937    -4.728503    4.893473    0.254819    -1.612710    7.783978    -3.422445    1.757578    -14.836588    -3.861397    -1.310322    7.787914    11.674802    -72.844841    2.817513    -34.922081    -23.142250    -26.050156    -83.389381    39.929180    -36.104927    25.317966    -0.474705    7.440423    -5.562906    73.953720    -1.720483    35.877586    15.291098    -31.031200    57.574287    -49.097599    -28.988951    -23.304991    4.023064    -20.906794    -6.977461    -15.360115    47.880199    11.046517    -0.179449    -18.270378    17.095352    -3.647321    -5.129433    -1.167503    -0.574475    -20.469521    -2.921224    -18.502117    54.912464    0.585301    11.564242    -26.878429    3.569447    -1.084142    1.881779    -0.037276    
-22.168564    76.340675    12.733287    -6.218169    -3.927800    -86.190018    -1.616616    19.776039    0.540015    -4.698338    4.796150    0.267991    -1.176587    7.779065    -3.680679    1.144154    -14.583340    -4.043657    -1.215070    7.786376    11.681330    -72.909172    2.551058    -34.965710    -23.146959    -25.647495    -84.007233    40.350735    -35.770481    25.570131    -0.432496    7.417347    -5.551243    73.877289    -1.921629    35.602077    15.636045    -30.754278    58.385471    -49.112587    -28.504999    -24.479586    4.229024    -20.985746    -7.078022    -14.970195    47.214909    10.832620    -0.333137    -18.039389    17.022852    -3.618493    -5.090290    -1.158213    -0.275380    -20.473110    -2.945984    -18.131493    54.111946    0.222519    11.409500    -26.583975    3.425997    -1.097100    1.906034    -0.040544    
-22.279457    76.631866    12.690266    -6.192915    -3.878966    -86.094330    -1.499441    19.478571    0.506524    -4.762815    4.729539    0.265629    -1.295412    7.970583    -3.665483    1.224302    -14.618739    -4.053787    -1.180739    7.790255    11.573895    -72.807144    2.130724    -35.038078    -23.097818    -25.323132    -84.674080    41.034599    -35.350052    26.046419    -0.493531    7.573637    -5.524194    73.927200    -1.990037    35.386578    15.256736    -30.288767    58.977737    -47.399261    -27.953611    -25.391611    4.156100    -20.463078    -7.259967    -14.403261    46.296082    10.556115    -0.504916    -17.705992    16.925938    -3.592420    -5.048072    -1.131615    -0.190682    -19.934315    -3.035987    -17.816677    53.167355    -0.075104    11.278073    -26.291229    3.293563    -1.136233    1.960516    -0.017943    
-22.381371    76.925316    12.655142    -6.119640    -3.819291    -85.969231    -1.355684    19.248835    0.418196    -4.870357    4.617146    0.244511    -1.211797    7.842176    -3.728603    1.093454    -14.419150    -4.102520    -1.033766    7.741336    11.703446    -72.856239    1.823217    -35.188084    -23.108686    -24.903259    -85.447006    41.994621    -34.833374    26.595694    -0.525064    7.530101    -5.595654    75.997238    -4.190338    36.143028    15.349809    -28.908785    58.588226    -46.059120    -27.066687    -24.855991    4.151393    -20.061172    -7.333230    -13.968982    45.472916    10.259023    -0.611248    -17.426119    16.867142    -3.529434    -4.983363    -1.167247    -0.145242    -19.448324    -3.222699    -17.516243    52.208897    -0.337703    11.141963    -25.949993    3.215089    -1.132371    1.955309    -0.020473    
-22.482887    77.219292    12.617165    -6.067923    -3.750118    -85.883614    -1.287722    19.034323    0.387887    -4.781264    4.410801    0.227854    -1.859159    8.009686    -3.476635    1.784806    -14.555321    -3.975282    -1.058971    7.675065    11.642252    -72.773407    1.392145    -35.218983    -23.157965    -24.485912    -86.250305    42.886738    -34.453545    26.894907    -0.720413    7.567683    -5.598578    74.143257    -2.319213    35.277054    15.983248    -29.750978    60.913311    -47.243446    -27.728779    -26.382648    4.023298    -19.516819    -7.486600    -13.175565    44.483810    9.840238    -0.849945    -17.003712    16.790359    -3.543354    -4.984118    -1.123231    -0.079484    -18.923714    -3.251502    -17.049213    51.242779    -0.784557    11.002795    -25.586067    3.123067    -1.003621    1.534557    0.327558    
